<svg width="34" height="34" viewBox="0 0 34 34" fill="none" xmlns="http://www.w3.org/2000/svg">
<g filter="url(#filter0_d_1_3517)">
<path d="M3.79263 14.5586C3.79263 20.5742 8.68716 25.4688 14.7028 25.4688C17.0817 25.4688 19.2555 24.7031 21.0465 23.418L27.7731 30.1582C28.0875 30.4727 28.4977 30.623 28.9352 30.623C29.8649 30.623 30.5075 29.9258 30.5075 29.0098C30.5075 28.5723 30.3434 28.1758 30.0563 27.8887L23.3708 21.1621C24.779 19.3301 25.6129 17.0469 25.6129 14.5586C25.6129 8.54297 20.7184 3.64844 14.7028 3.64844C8.68716 3.64844 3.79263 8.54297 3.79263 14.5586ZM6.13052 14.5586C6.13052 9.82812 9.97231 5.98633 14.7028 5.98633C19.4333 5.98633 23.275 9.82812 23.275 14.5586C23.275 19.2891 19.4333 23.1309 14.7028 23.1309C9.97231 23.1309 6.13052 19.2891 6.13052 14.5586Z" fill="#047ECF"/>
</g>
<defs>
<filter id="filter0_d_1_3517" x="0.792603" y="0.648438" width="32.7148" height="32.9746" filterUnits="userSpaceOnUse" color-interpolation-filters="sRGB">
<feFlood flood-opacity="0" result="BackgroundImageFix"/>
<feColorMatrix in="SourceAlpha" type="matrix" values="0 0 0 0 0 0 0 0 0 0 0 0 0 0 0 0 0 0 127 0" result="hardAlpha"/>
<feOffset/>
<feGaussianBlur stdDeviation="1.5"/>
<feComposite in2="hardAlpha" operator="out"/>
<feColorMatrix type="matrix" values="0 0 0 0 0.0156863 0 0 0 0 0.494118 0 0 0 0 0.811765 0 0 0 0.2 0"/>
<feBlend mode="normal" in2="BackgroundImageFix" result="effect1_dropShadow_1_3517"/>
<feBlend mode="normal" in="SourceGraphic" in2="effect1_dropShadow_1_3517" result="shape"/>
</filter>
</defs>
</svg>
